<svg xmlns="http://www.w3.org/2000/svg" xmlns:xlink="http://www.w3.org/1999/xlink" width="3076" height="1172" viewBox="0 0 1280 487.7" id="svg968" overflow="hidden"><defs id="defs845"><linearGradient id="dial"><stop offset="0" stop-color="#FBFBFB"/><stop offset="1" stop-color="#D4D4D4"/></linearGradient><linearGradient x2="0" y2="100%" id="limit"><stop offset="0" stop-color="#F8F138"/><stop offset="1" stop-color="#F01C24"/></linearGradient><linearGradient id="neck"><stop offset="0" stop-color="#D3923B"/><stop offset="1" stop-color="#784F29"/></linearGradient><linearGradient y2="100%" id="body"><stop offset="0.05" stop-color="#FFFFFF"/><stop offset="1" stop-color="#3A3A3A"/></linearGradient><path d="M-59 206C-20.9283 210.973 20.9283 210.973 59 206L59 244C21.5879 251.451-21.5879 251.451-59 244Z" id="label"/></defs><g id="g964" font-family="Liberation Sans,Arial,Arial" font-weight="700" font-size="36" text-anchor="middle"><g id="g872" transform="translate(73.8 0)"><g id="cylinder"><rect x="-8" y="128" width="16" height="11" id="rect847" stroke="#000000" stroke-width="3" fill="url(#neck)"/><circle cx="0" cy="65" r="62.3" id="circle849" stroke="#000000" stroke-width="5" fill="url(#dial)"/><path d="M40.55 93.39C53.3609 78.8217 58.1913 58.8866 53.47 40.07 62.3767 59.1719 60.4174 81.5743 48.33 98.84Z" id="path851" fill="url(#limit)"/><path d="M-47.51 98.27-42.6 94.83M-52.57 89.51-47.13 86.98M-56.02 80.01-50.23 78.46M-57.78 70.06-51.8 69.53M-57.78 59.94-51.8 60.47M-56.02 49.99-50.23 51.54M-52.57 40.49-47.13 43.02M-47.51 31.73-42.6 35.17M-41.01 23.99-36.77 28.23M-33.27 17.49-29.83 22.4M-24.51 12.43-21.98 17.87M-15.01 8.98-13.46 14.77M-5.06 7.22-4.53 13.2M5.06 7.22 4.53 13.2M15.01 8.98 13.46 14.77M24.51 12.43 21.98 17.87M33.27 17.49 29.83 22.4M41.01 23.99 36.77 28.23M47.51 31.73 42.6 35.17M52.57 40.49 47.13 43.02M56.02 49.99 50.23 51.54M57.78 59.94 51.8 60.47M57.78 70.06 51.8 69.53M57.12 75.07 51.21 74.03M56.02 80.01 50.23 78.46M54.5 84.84 48.86 82.79M52.57 89.51 47.13 86.98M50.23 94 45.03 91M47.51 98.27 42.6 94.83" id="path853" stroke="#000000" stroke-width="2.1" stroke-linecap="round" fill="none"/><path d="M17.9 139.3 17.9 156.27C17.9 176.27 62.33 183.87 62.33 202L62.33 356C38.26 376-38.26 376-62.33 356L-62.33 202C-62.33 183.87-17.9 176.27-17.9 156.27L-17.9 139.3Z" id="path855" stroke="#000000" stroke-width="5" fill="url(#body)"/></g><use width="100%" height="100%" xlink:href="#pointer" id="use858" transform="matrix(0.819152 0.573576 -0.573576 0.819152 37.2825 11.7551)"/><use width="100%" height="100%" xlink:href="#label" id="use860" fill="#148649"/><path d="M-59 214C-20.9283 218.973 20.9283 218.973 59 214L59 237C21.3185 243.448-21.3185 243.448-59 237Z" id="whiteBand" fill="#DFE0E1"/><path d="M-13.5 273.4C17.5 271.4 17.5 325.4-13.5 323.4-44.5 325.4-44.5 271.4-13.5 273.4M-13.5 285.4C-24.5 283.4-24.5 313.4-13.5 311.4-2.5 313.4-2.5 283.4-13.5 285.4" id="charO"/><path d="M14 321C31 310.7 46.4 325.7 31.1 333.3 27.7 334.86 24.6 334.73 22.4 339.3L36.8 339.3 36.8 345.7 14.2 345.7C14.2 340.7 14.7 332.6 26.1 328.6 31.7 326.7 28.8 319.2 17.3 326.5Z" id="char2"/><g id="g870" fill="#CCCCCC"><path d="M67 275 85 275 85 257 103 257 103 275 121 275 121 293 103 293 103 311 85 311 85 293 67 293Z" id="plus" fill="#000000"/><g><text id="text866" y="423"><tspan fill="#000000">20.9 kPa</tspan></text></g><g><text id="text868" y="475"><tspan fill="#000000">3.03 psi</tspan></text></g></g></g><g id="g890" transform="translate(261 0)"><use width="100%" height="100%" xlink:href="#cylinder" id="use874"/><use width="100%" height="100%" xlink:href="#pointer" id="use876" transform="matrix(-0.866025 0.5 -0.5 -0.866025 32.5 121.292)"/><use width="100%" height="100%" xlink:href="#label" id="use878" fill="#333333"/><use x="4" width="100%" height="100%" xlink:href="#char2" id="use880"/><g id="g888" fill="#CCCCCC"><use width="100%" height="100%" xlink:href="#plus" id="use882"/><g><text id="text884" y="423"><tspan fill="#000000">78.1 kPa</tspan></text></g><g><text id="text886" y="475"><tspan fill="#000000">11.32 psi</tspan></text></g></g></g><g id="g906" transform="translate(448.2 0)"><use width="100%" height="100%" xlink:href="#cylinder" id="use892"/><path d="M2.46 63.28-2.58 61.31-47.63 98.1-47.4 98.43 2.01 67.87Z" id="pointer" fill="#BF1E2D"/><use width="100%" height="100%" xlink:href="#label" id="use895" fill="#0D7F45"/><path d="M-23.5 274-9.5 274 7.9 322.9-6.7 322.9-9.1 314.6-24.1 314.6-26.5 322.9-40.9 322.9ZM-16.7 289-20.7 303.5-12.7 303.5Z" id="charA"/><g id="g904" fill="#CCCCCC"><use width="100%" height="100%" xlink:href="#plus" id="use898"/><g><text id="text900" y="423"><tspan fill="#000000">0.97 kPa</tspan></text></g><g><text id="text902" y="475"><tspan fill="#000000">0.14 psi</tspan></text></g></g></g><g id="g924" transform="translate(635.4 0)"><use width="100%" height="100%" xlink:href="#cylinder" id="use908"/><use width="100%" height="100%" xlink:href="#pointer" id="use910"/><use x="45" width="100%" height="100%" xlink:href="#charO" id="use912"/><use x="-27" width="100%" height="100%" xlink:href="#char2" id="use914"/><g id="g922" fill="#CCCCCC"><use width="100%" height="100%" xlink:href="#plus" id="use916"/><g><text id="text918" y="423"><tspan fill="#000000">1.28 kPa</tspan></text></g><g><text id="text920" y="475"><tspan fill="#000000">0.18 psi</tspan></text></g></g></g><g id="g942" transform="translate(822.6 0)"><use width="100%" height="100%" xlink:href="#cylinder" id="use926"/><use width="100%" height="100%" xlink:href="#pointer" id="use928"/><use width="100%" height="100%" xlink:href="#label" id="use930" fill="#6A6A6A"/><use x="23" width="100%" height="100%" xlink:href="#charO" id="use932"/><use x="20" width="100%" height="100%" xlink:href="#char2" id="use934"/><g id="g940" fill="#CCCCCC"><g><text id="text936" y="423"><tspan fill="#000000">0.05 kPa</tspan></text></g><g><text id="text938" y="475"><tspan fill="#000000">0.007 psi</tspan></text></g></g></g><path d="M980 248 1040 248M1040 281 980 281" id="path944" stroke="#000000" stroke-width="22" fill="none"/><g id="g962" transform="translate(1190 0)"><use width="100%" height="100%" xlink:href="#cylinder" id="use946"/><use width="100%" height="100%" xlink:href="#pointer" id="use948" transform="matrix(-0.965926 -0.258819 0.258819 -0.965926 -16.8232 127.785)"/><use width="100%" height="100%" xlink:href="#label" id="use950" fill="#333333"/><use width="100%" height="100%" xlink:href="#whiteBand" id="use952"/><use x="-15" width="100%" height="100%" xlink:href="#charA" id="use954"/><g id="g960" fill="#CCCCCC"><g><text id="text956" y="423"><tspan fill="#000000">101.3 kPa</tspan></text></g><g><text id="text958" y="475"><tspan fill="#000000">14.69 psi</tspan></text></g></g></g></g><path d="M257.2 299.8 257.2 274 270.2 274 270.2 323 257.2 323 240.2 297.2 240.2 323 227.2 323 227.2 274 240.2 274ZM462 286 474.6 286 474.6 288C478.626 285.173 483.783 284.501 488.4 286.2L485.4 300.2C484.012 297.191 480.448 295.877 477.439 297.265 476.211 297.831 475.211 298.794 474.6 300L474.6 323 462 323M578 274 591.7 274 591.7 292 607 292 607 274 620.7 274 620.7 323 607 323 607 303.7 591.7 303.7 591.7 323 578 323ZM790 273.4C801.8 272.9 805.6 278.3 809.6 287.3L797.3 292.45C793.6 283.05 790.05 285.35 790 285.4 778.25 283.7 779 313.4 790 311.4 790.2 311.45 794.1 313 798 305L809.9 311.3C803.9 322.3 796.7 322.85 790.15 323.55 759.75 325.85 759.3 271.4 790 273.4M1187 274 1200.5 274 1200.5 323 1187 323ZM1205 274 1231 274C1239.56 273.959 1246.53 281.134 1246.57 290.025 1246.6 296.36 1243.05 302.123 1237.5 304.75L1247.5 323 1231.5 323 1223.5 306.5 1218.5 306.5 1218.5 323 1205 323ZM1218.5 295.6 1227 295.6C1229.71 295.6 1231.9 293.406 1231.9 290.7 1231.9 287.994 1229.71 285.8 1227 285.8L1218.5 285.8Z" id="path966"/></svg>